<?xml version="1.0" encoding="UTF-8"?>
<svg width="35px" height="43px" viewBox="0 0 35 43" version="1.1" xmlns="http://www.w3.org/2000/svg" xmlns:xlink="http://www.w3.org/1999/xlink">
    <!-- Generator: Sketch 47.1 (45422) - http://www.bohemiancoding.com/sketch -->
    <title>client-image2</title>
    <desc>Created with Sketch.</desc>
    <defs>
        <polygon id="path-1" points="0.165 0.6919 0.165 37.9999 33.2225 37.9999 33.2225 0.6919 0.165 0.6919"></polygon>
        <polygon id="path-3" points="1.5 1.9795 1.5 0.9795 0.8421 0.9795 0.8421 1.9795 1.5 1.9795"></polygon>
        <polygon id="path-5" points="0.7561 0.875 3.1561 0.875 3.1561 3.3638 0.7561 3.3638 0.7561 0.875"></polygon>
    </defs>
    <g id="Page-1" stroke="none" stroke-width="1" fill="none" fill-rule="evenodd">
        <g id="Desktop-HD" transform="translate(-563.000000, -101.000000)">
            <g id="Page-1" transform="translate(481.000000, 100.000000)">
                <g id="client-image2" transform="translate(82.000000, 0.125000)">
                    <path d="M12.039,34.1958 C12.613,32.7508 16.493,22.9698 16.493,22.9698 L13.937,23.9508 L18.125,17.5768 L28.752,14.0518 L25.9,17.4858 L29.467,16.2398 L12.039,34.1958" id="Fill-34" fill="#383839"></path>
                    <polygon id="Fill-36" fill="#68686B" points="18.4695 18.0496 26.3855 15.4256 23.5075 18.8886 26.6235 17.8146 13.9395 30.8886 17.5505 21.7886 15.4955 22.5736"></polygon>
                    <g id="Group-40" transform="translate(0.000000, 5.000000)">
                        <mask id="mask-2" fill="white">
                            <use xlink:href="#path-1"></use>
                        </mask>
                        <g id="Clip-39"></g>
                        <path d="M24.4685,17.3989 L17.9805,24.0529 L24.0125,24.0529 L24.0125,29.1639 C22.6295,29.7489 21.7235,29.9619 20.2865,29.9619 C17.9545,29.9619 15.8465,29.2239 14.1995,27.9399 L10.3355,31.7929 L12.4815,26.2619 C11.1855,24.4789 10.3325,21.9499 10.3325,19.3679 C10.3325,13.7259 14.1655,9.5729 19.4355,9.5729 C20.7475,9.5729 21.9475,9.7599 23.1195,10.2019 L30.5935,7.7709 L27.9615,11.0689 L31.9675,9.6309 L29.3595,12.3039 L29.0345,12.6409 L32.5975,12.6409 L32.5975,0.6919 L26.9645,0.6919 L26.9645,2.4569 C24.7115,1.5919 22.2365,1.1619 19.4885,1.1619 C8.2555,1.1619 0.1645,8.9879 0.1645,19.9539 C0.1645,30.6009 7.9365,37.9999 19.1165,37.9999 C24.3865,37.9999 29.1235,36.5619 33.2225,33.7419 L33.2215,17.3989 L24.4685,17.3989 Z" id="Fill-38" fill="#383839" mask="url(#mask-2)"></path>
                    </g>
                    <polygon id="Fill-41" fill="#EFEFEF" points="14.7638 28.813 24.8158 18.439 21.9908 19.399 24.8668 15.929 18.4688 18.049 16.2978 21.354 17.9738 20.722"></polygon>
                    <polygon id="Fill-43" fill="#000000" points="33.4346 5.0592 33.2046 5.0592 33.2046 4.9792 33.7526 4.9792 33.7526 5.0592 33.5246 5.0592 33.5246 5.6782 33.4346 5.6782"></polygon>
                    <g id="Group-47" transform="translate(33.000000, 4.000000)">
                        <mask id="mask-4" fill="white">
                            <use xlink:href="#path-3"></use>
                        </mask>
                        <g id="Clip-46"></g>
                        <polygon id="Fill-45" fill="#000000" mask="url(#mask-4)" points="1.1251 1.6785 0.9341 1.1105 0.9341 1.6785 0.8421 1.6785 0.8421 0.9795 0.9701 0.9795 1.1711 1.5735 1.3721 0.9795 1.5001 0.9795 1.5001 1.6785 1.4081 1.6785 1.4081 1.1105 1.2171 1.6785"></polygon>
                    </g>
                    <path d="M15.7487,1.6311 L15.7487,1.5061 C15.6457,1.3811 15.4567,1.2491 15.1137,1.2491 C14.6357,1.2491 14.3077,1.5781 14.3077,2.1051 C14.3077,2.6541 14.6717,2.9901 15.1457,2.9901 C15.4027,2.9901 15.6027,2.9291 15.7237,2.8471 L15.7237,2.3691 L15.0707,2.3691 L15.0707,2.0201 L16.1377,2.0201 L16.1377,3.0681 C15.8627,3.2611 15.5207,3.3641 15.1137,3.3641 C14.2977,3.3641 13.8547,2.8011 13.8547,2.1271 C13.8547,1.4061 14.3077,0.8751 15.0247,0.8751 C15.3747,0.8751 15.6137,0.9781 15.7487,1.0821 L15.7487,0.9291 L16.0977,0.9291 L16.0977,1.6311 L15.7487,1.6311 Z" id="Fill-48" fill="#383839"></path>
                    <path d="M17.8244,2.1981 L17.5354,1.2851 L17.5244,1.2851 L17.2434,2.1981 L17.8244,2.1981 Z M16.4264,3.3041 L16.4264,2.9541 L16.6334,2.9541 L17.1824,1.2851 L16.9184,1.2851 L16.9184,0.9361 L17.8244,0.9361 L18.4874,2.9541 L18.6914,2.9541 L18.6914,3.3041 L17.7884,3.3041 L17.7884,2.9541 L18.0594,2.9541 L17.9314,2.5471 L17.1394,2.5471 L17.0184,2.9541 L17.2934,2.9541 L17.2934,3.3041 L16.4264,3.3041 Z" id="Fill-50" fill="#383839"></path>
                    <polygon id="Fill-52" fill="#383839" points="19.4256 1.2852 19.0156 1.2852 19.0156 1.6922 18.6656 1.6922 18.6656 0.9362 20.5986 0.9362 20.5986 1.6922 20.2496 1.6922 20.2496 1.2852 19.8396 1.2852 19.8396 2.9542 20.1456 2.9542 20.1456 3.3042 19.1186 3.3042 19.1186 2.9542 19.4256 2.9542"></polygon>
                    <g id="Group-56" transform="translate(20.000000, 0.000000)">
                        <mask id="mask-6" fill="white">
                            <use xlink:href="#path-5"></use>
                        </mask>
                        <g id="Clip-55"></g>
                        <path d="M1.9541,2.9898 C2.3861,2.9898 2.7031,2.6188 2.7031,2.1198 C2.7031,1.6348 2.4101,1.2498 1.9541,1.2498 C1.5301,1.2498 1.2091,1.6208 1.2091,2.1198 C1.2091,2.6188 1.5231,2.9898 1.9541,2.9898 M1.9541,0.8748 C2.6991,0.8748 3.1561,1.4568 3.1561,2.1198 C3.1561,2.8148 2.6601,3.3638 1.9581,3.3638 C1.1301,3.3638 0.7561,2.6978 0.7561,2.1198 C0.7561,1.4418 1.2411,0.8748 1.9541,0.8748" id="Fill-54" fill="#383839" mask="url(#mask-6)"></path>
                    </g>
                    <path d="M24.3436,1.2852 L24.0016,1.2852 L24.0016,1.9772 L24.3646,1.9772 C24.6286,1.9772 24.7786,1.8632 24.7786,1.6202 C24.7786,1.4032 24.6146,1.2852 24.3436,1.2852 L24.3436,1.2852 Z M23.3196,2.9542 L23.5876,2.9542 L23.5876,1.2852 L23.3196,1.2852 L23.3196,0.9362 L24.3546,0.9362 C24.9316,0.9362 25.2316,1.1642 25.2316,1.5632 C25.2316,1.9022 24.9786,2.0842 24.7326,2.1162 L24.7326,2.1272 C25.0456,2.1772 25.1676,2.3732 25.1676,2.6442 L25.1676,2.9542 L25.4346,2.9542 L25.4346,3.3042 L24.7536,3.3042 L24.7536,2.7332 C24.7536,2.4652 24.6286,2.3262 24.3396,2.3262 L24.0016,2.3262 L24.0016,2.9542 L24.3006,2.9542 L24.3006,3.3042 L23.3196,3.3042 L23.3196,2.9542 Z" id="Fill-57" fill="#383839"></path>
                    <path d="M27.1537,2.1981 L26.8647,1.2851 L26.8547,1.2851 L26.5727,2.1981 L27.1537,2.1981 Z M25.7557,3.3041 L25.7557,2.9541 L25.9627,2.9541 L26.5117,1.2851 L26.2477,1.2851 L26.2477,0.9361 L27.1537,0.9361 L27.8167,2.9541 L28.0207,2.9541 L28.0207,3.3041 L27.1177,3.3041 L27.1177,2.9541 L27.3887,2.9541 L27.2607,2.5471 L26.4687,2.5471 L26.3477,2.9541 L26.6227,2.9541 L26.6227,3.3041 L25.7557,3.3041 Z" id="Fill-59" fill="#383839"></path>
                    <path d="M29.019,1.2852 L29.019,2.9542 L29.319,2.9542 C29.893,2.9542 30.153,2.5762 30.153,2.1202 C30.153,1.6342 29.889,1.2852 29.315,1.2852 L29.019,1.2852 Z M29.333,0.9362 C30.16,0.9362 30.606,1.4422 30.606,2.1162 C30.606,2.7612 30.16,3.3042 29.34,3.3042 L28.338,3.3042 L28.338,2.9542 L28.605,2.9542 L28.605,1.2852 L28.338,1.2852 L28.338,0.9362 L29.333,0.9362 Z" id="Fill-61" fill="#383839"></path>
                    <polygon id="Fill-63" fill="#383839" points="30.7701 2.9541 31.0371 2.9541 31.0371 1.2851 30.7701 1.2851 30.7701 0.9361 32.5921 0.9361 32.5921 1.5951 32.2431 1.5951 32.2431 1.2851 31.4511 1.2851 31.4511 1.9091 32.1611 1.9091 32.1611 2.2591 31.4511 2.2591 31.4511 2.9541 32.2431 2.9541 32.2431 2.5721 32.5921 2.5721 32.5921 3.3031 30.7701 3.3031"></polygon>
                </g>
            </g>
        </g>
    </g>
</svg>