<?xml version="1.0" encoding="UTF-8"?>
<svg width="96px" height="35px" viewBox="0 0 96 35" version="1.1" xmlns="http://www.w3.org/2000/svg" xmlns:xlink="http://www.w3.org/1999/xlink">
    <!-- Generator: Sketch 47.1 (45422) - http://www.bohemiancoding.com/sketch -->
    <title>client-image5</title>
    <desc>Created with Sketch.</desc>
    <defs></defs>
    <g id="Page-1" stroke="none" stroke-width="1" fill="none" fill-rule="evenodd">
        <g id="Desktop-HD" transform="translate(-483.000000, -106.000000)" fill-rule="nonzero" fill="#383839">
            <g id="client-image5" transform="translate(483.000000, 106.000000)">
                <path d="M23.990256,12.0496022 C24.1638887,12.1355685 24.3085826,12.2501901 24.4243378,12.3791395 C24.4388072,12.3934672 24.4388072,12.3934672 24.4532766,12.3934672 L24.467746,12.3934672 L27.7957067,10.9750241 C27.8101761,10.9606965 27.8246455,10.9463687 27.8246455,10.932041 C27.8246455,10.9177133 27.8246455,10.9033856 27.8101761,10.8890579 L24.6992563,7.80860075 C24.6847869,7.79427303 24.6703175,7.79427303 24.6703175,7.79427303 L24.6558481,7.79427303 C24.6413787,7.79427303 24.6269093,7.80860075 24.6269093,7.83725613 L23.9468478,12.0066191 C23.9613172,12.0209468 23.9757866,12.0496022 23.990256,12.0496022 Z M17.0883548,9.25569924 C17.2475182,9.49927026 17.3488039,9.78582442 17.3777427,10.0723785 C17.3777427,10.0867062 17.3922121,10.101034 17.4066815,10.1153617 L22.3552144,12.2215347 L22.3696838,12.2215347 C22.3841532,12.2215347 22.3986226,12.2215347 22.3986226,12.207207 C22.5433165,12.0925854 22.7169493,12.0066191 22.9050514,11.9493083 C22.9195208,11.9493083 22.9339902,11.9349806 22.9339902,11.9063252 L23.7442763,6.87729972 C23.7442763,6.86297201 23.7442763,6.84864429 23.7298069,6.83431663 L20.6333565,3.75385943 C20.6188871,3.73953173 20.6188871,3.73953173 20.6044177,3.73953173 C20.5899483,3.73953173 20.5754789,3.75385943 20.5754789,3.76818714 L17.0883548,9.18406066 C17.0738854,9.21271609 17.0738854,9.24137152 17.0883548,9.25569924 Z M33.9886075,17.0069891 L28.6783398,11.7343927 C28.6638704,11.7200649 28.649401,11.7200649 28.649401,11.7200649 L28.6349316,11.7200649 L25.0320524,13.2531297 C25.017583,13.2674574 25.0031136,13.2817851 25.0031136,13.2961128 C25.0031136,13.3104405 25.017583,13.3390959 25.0320524,13.3390959 L33.9162606,17.1072831 L33.93073,17.1072831 C33.9451993,17.1072831 33.9596687,17.1072831 33.9596687,17.0929554 L33.9886075,17.0643 C34.0175463,17.0643 34.0175463,17.0213168 33.9886075,17.0069891 Z M33.1059745,17.8666516 L24.5835012,14.2560692 L24.5690318,14.2560692 C24.5545624,14.2560692 24.540093,14.2560692 24.5256236,14.270397 C24.2941132,14.5856065 23.9468478,14.7861944 23.5417047,14.8435052 C23.5272354,14.8435052 23.4982966,14.8578329 23.4982966,14.8864884 L22.5867247,20.4886221 C22.5867247,20.5029498 22.5867247,20.5172775 22.6011941,20.5316052 C22.9195208,20.7751762 23.1076229,21.1333689 23.1510311,21.5345448 C23.1510311,21.5632002 23.1655005,21.5775279 23.1944393,21.5775279 L28.3455437,22.652106 L28.3600131,22.652106 C28.3744825,22.652106 28.3889519,22.652106 28.3889519,22.6377782 L33.1059745,17.9526178 C33.1204439,17.9382901 33.1204439,17.9239624 33.1204439,17.9096347 C33.1204439,17.895307 33.1204439,17.8809793 33.1059745,17.8666516 Z M21.8198468,13.0811972 L17.1607018,11.1039735 L17.1462324,11.1039735 C17.131763,11.1039735 17.1172936,11.1183012 17.1028243,11.132629 C16.7844976,11.619771 16.2491299,11.9063252 15.6703542,11.9063252 C15.5835378,11.9063252 15.4967215,11.8919974 15.3954357,11.8776697 L15.3809663,11.8776697 C15.3664969,11.8776697 15.3520275,11.8919974 15.3375581,11.9063252 L11.5031686,17.8523239 C11.4886992,17.8666516 11.4886992,17.895307 11.5031686,17.9096347 C11.517638,17.9239624 11.5321073,17.9239624 11.5465767,17.9239624 L11.5610461,17.9239624 L21.790908,13.5540116 C21.8053774,13.5396838 21.8198468,13.5253561 21.8198468,13.5110284 L21.8198468,13.4537176 L21.8198468,13.3820791 C21.8198468,13.2961128 21.8343162,13.2101465 21.8487856,13.138508 C21.8487856,13.1098526 21.8343162,13.0955249 21.8198468,13.0811972 Z M27.4339718,23.483113 L22.9050514,22.551812 L22.890582,22.551812 C22.8761126,22.551812 22.8616432,22.5661397 22.8471738,22.5661397 C22.6735411,22.7810554 22.4565002,22.9529878 22.1960511,23.0532818 C22.1815817,23.0532818 22.1671123,23.0819372 22.1671123,23.0962649 L21.0819077,29.7729767 C21.0819077,29.8016322 21.0963771,29.8159598 21.1108465,29.8302875 L21.1397853,29.8302875 C21.1542547,29.8302875 21.1687241,29.8302875 21.1687241,29.8159598 L27.4484412,23.583407 C27.4629106,23.5690793 27.4629106,23.5547516 27.4629106,23.5404238 C27.4629106,23.4974407 27.4484412,23.483113 27.4339718,23.483113 Z M21.1108465,23.0246264 C20.6767646,22.8526939 20.358438,22.4658458 20.2426828,22.0216868 C20.2426828,22.0073591 20.2282134,21.9930314 20.1992747,21.9787037 L11.8070259,20.2450511 C11.8070259,20.2450511 11.8070259,20.2450511 11.7925565,20.2450511 C11.7780871,20.2450511 11.7636177,20.2593788 11.7491483,20.2737065 C11.7057401,20.345345 11.6768013,20.4026558 11.6333932,20.4599667 C11.6189238,20.4742944 11.6189238,20.5029498 11.6333932,20.5172775 L19.2732334,31.5782679 C19.2877028,31.5925956 19.2877028,31.5925956 19.3021722,31.5925956 C19.3166416,31.5925956 19.331111,31.5925956 19.331111,31.5782679 L19.7941316,31.1197813 C19.7941316,31.1054536 19.808601,31.1054536 19.808601,31.0911258 L21.1108465,23.0676095 C21.1397853,23.0676095 21.1397853,23.0389541 21.1108465,23.0246264 Z M11.9806586,19.2277838 C11.9806586,19.2564392 11.995128,19.2707669 12.0240668,19.2707669 L20.3439686,20.9900919 L20.358438,20.9900919 C20.3729074,20.9900919 20.3873768,20.9757642 20.4018462,20.9614365 C20.6478258,20.5316052 21.0819077,20.2450511 21.5738671,20.2163956 C21.6028059,20.2163956 21.6172753,20.202068 21.6172753,20.1734125 L22.5143777,14.657245 C22.5143777,14.6429174 22.5143777,14.6142619 22.4854389,14.6142619 C22.4275614,14.5712788 22.3696838,14.5282957 22.2973368,14.4566572 C22.2828674,14.4423294 22.268398,14.4423294 22.268398,14.4423294 L22.2539286,14.4423294 L11.9661892,18.8409357 C11.9372504,18.8552634 11.9372504,18.8695911 11.9372504,18.8982465 C11.9517198,19.0128682 11.9806586,19.1131622 11.9806586,19.2277838 Z M8.49353454,20.6175715 C8.45012634,20.5602607 8.40671819,20.5029498 8.36330998,20.4313113 C8.34884058,20.4169836 8.33437118,20.4026558 8.31990178,20.4026558 L8.30543243,20.4026558 L4.71702259,21.9357206 C4.70255319,21.9357206 4.6880838,21.9500483 4.6880838,21.964376 C4.6880838,21.9787037 4.6880838,21.9930314 4.70255319,22.0073591 L6.45334993,23.7410118 C6.46781933,23.7553395 6.48228873,23.7553395 6.48228873,23.7553395 C6.49675808,23.7553395 6.51122748,23.7410118 6.52569688,23.726684 L8.50800395,20.6462269 C8.50800395,20.6462269 8.50800395,20.6318992 8.49353454,20.6175715 Z M10.8665152,21.1763521 C10.8520458,21.1620244 10.8375764,21.1476967 10.823107,21.1476967 L10.8086376,21.1476967 C10.5481886,21.2623183 10.2877394,21.3196291 10.012821,21.3196291 C9.79578005,21.3196291 9.59320854,21.2909737 9.37616762,21.2193352 L9.36169822,21.2193352 C9.34722881,21.2193352 9.33275941,21.2336629 9.31829001,21.2479906 L7.23469724,24.4860526 L7.22022784,24.5003803 C7.20575844,24.514708 7.20575844,24.5433634 7.22022784,24.5576911 L16.7989669,34.0569613 C16.8134363,34.0712891 16.8279057,34.0712891 16.8279057,34.0712891 C16.8423751,34.0712891 16.8568445,34.0712891 16.8568445,34.0569613 L18.5352943,32.3806196 C18.5497637,32.3662918 18.5497637,32.3376364 18.5352943,32.3233087 L10.8665152,21.1763521 Z M9.52086153,17.4368203 C9.53533093,17.451148 9.54980033,17.4654758 9.56426973,17.4654758 L9.57873913,17.4654758 C9.72343304,17.4368203 9.88259641,17.408165 10.0272904,17.408165 C10.1864537,17.408165 10.3600864,17.4368203 10.5192498,17.4798035 L10.5337192,17.4798035 C10.5481886,17.4798035 10.562658,17.4654758 10.5771273,17.451148 L14.454925,11.4335108 C14.4693944,11.4191831 14.4693944,11.3905277 14.454925,11.3762 C14.1510678,11.0609904 13.977435,10.6454869 13.977435,10.2013279 C13.977435,10.0723785 13.9919044,9.9434292 14.0208432,9.8144798 C14.0208432,9.78582442 14.0063738,9.77149671 13.9919044,9.75716899 C13.499945,9.54225335 9.1446573,7.70830679 9.1446573,7.69397907 L9.1301879,7.69397907 C9.11571849,7.69397907 9.10124909,7.69397907 9.10124909,7.70830679 L5.41155352,11.3762 C5.39708412,11.3905277 5.39708412,11.4191831 5.41155352,11.4335108 L9.52086153,17.4368203 Z M9.94047396,6.94893825 C9.94047396,6.94893825 14.3391699,8.81154025 14.527272,8.89750655 L14.5417414,8.89750655 C14.5562108,8.89750655 14.5562108,8.89750655 14.5706802,8.88317883 C14.8745375,8.63960776 15.2652111,8.4963307 15.6558848,8.4963307 C15.8439869,8.4963307 16.0320891,8.52498614 16.2201912,8.58229695 L16.2346606,8.58229695 C16.2491299,8.58229695 16.2635993,8.56796923 16.2780687,8.55364151 L19.8520092,3.00881863 C19.8664786,2.99449092 19.8664786,2.96583551 19.8520092,2.9515078 L16.8857833,0.0143277077 C16.8713139,0 16.8713139,0 16.8568445,0 C16.8423751,0 16.8279057,0 16.8279057,0.0143277077 L9.94047396,6.86297201 C9.92600456,6.87729972 9.92600456,6.89162744 9.92600456,6.90595516 C9.91153521,6.93461053 9.92600456,6.93461053 9.94047396,6.94893825 Z M8.23308542,18.482743 C8.24755482,18.482743 8.26202422,18.4684153 8.27649363,18.4540876 C8.36330998,18.2821551 8.49353454,18.1245503 8.62375911,17.9812732 C8.63822845,17.9669455 8.63822845,17.9382901 8.62375911,17.9239624 C8.5803509,17.8666516 4.65914501,12.1928793 4.65914501,12.1785516 C4.64467561,12.1642239 4.64467561,12.1642239 4.61573683,12.1498962 C4.60126743,12.1498962 4.58679804,12.1498962 4.58679804,12.1642239 L0.0144693942,16.6917796 C0,16.7061073 0,16.7204349 0,16.7347627 C0,16.7490904 0.0144693942,16.7634181 0.043408183,16.7634181 L8.23308542,18.482743 C8.21861602,18.482743 8.21861602,18.482743 8.23308542,18.482743 Z M7.85688119,19.4713549 C7.85688119,19.4426994 7.84241179,19.4283717 7.81347299,19.4283717 L0.709000325,17.9526178 C0.709000325,17.9526178 0.709000325,17.9526178 0.694530934,17.9526178 C0.680061538,17.9526178 0.665592141,17.9669455 0.65112275,17.9812732 C0.636653354,17.9956009 0.65112275,18.0242564 0.665592141,18.0385841 L3.83438953,21.1906798 C3.84885892,21.2050075 3.86332831,21.2050075 3.86332831,21.2050075 L3.87779771,21.2050075 L7.81347299,19.5286657 C7.84241179,19.5000102 7.85688119,19.4856826 7.85688119,19.4713549 Z" id="Combined-Shape"></path>
                <path d="M69.2903897,8.7399017 L71.6054929,8.7399017 L71.6054929,23.6693732 L69.2903897,23.6693732 L69.2903897,8.7399017 Z M45.6039911,12.9522478 C44.3596232,12.9522478 43.361235,13.4250622 42.5943572,14.3563632 L42.5220101,13.138508 L40.351601,13.138508 L40.351601,23.6550455 L42.6667041,23.6550455 L42.6667041,16.175982 C43.1297247,15.3163196 43.8242557,14.8864884 44.7502969,14.8864884 C45.3869502,14.8864884 45.8499709,15.0440931 46.1393587,15.3736304 C46.4287467,15.68884 46.5589712,16.1903097 46.5589712,16.8493843 L46.5589712,23.6550455 L48.8740743,23.6550455 L48.8740743,16.7061073 C48.8451355,14.2130861 47.7599309,12.9522478 45.6039911,12.9522478 Z M55.6023427,12.9522478 C54.7197096,12.9522478 53.923893,13.1814911 53.2004233,13.6399778 C52.4769535,14.0984644 51.9271165,14.7432112 51.5219735,15.5742183 C51.1312999,16.4052254 50.9287283,17.3365264 50.9287283,18.3824491 L50.9287283,18.6690032 C50.9287283,20.2307233 51.3917489,21.4915616 52.3033208,22.4371904 C53.2148926,23.382819 54.401383,23.8556334 55.8772612,23.8556334 C56.7309555,23.8556334 57.5123029,23.6837009 58.2068336,23.339836 C58.9013647,22.9959709 59.4512019,22.5088289 59.8563445,21.8784097 L58.6119767,20.6605546 C57.9463844,21.5345448 57.0782209,21.9787037 56.0219552,21.9787037 C55.2695466,21.9787037 54.6328933,21.720805 54.1409339,21.2193352 C53.6345051,20.7178654 53.3595866,20.0301355 53.2872396,19.1561453 L60.0299774,19.1561453 L60.0299774,18.2105166 C60.0299774,16.5341748 59.639304,15.2446811 58.886895,14.3277077 C58.0910785,13.4107344 57.0058739,12.9522478 55.6023427,12.9522478 Z M57.7148742,17.4224926 L53.301709,17.4224926 C53.4029948,16.6058133 53.6634439,15.9753942 54.0541175,15.5312352 C54.4447912,15.0727486 54.9656894,14.8578329 55.6023427,14.8578329 C56.2389961,14.8578329 56.7454249,15.0584208 57.1071598,15.4595966 C57.4688948,15.8607725 57.6714661,16.4625362 57.729344,17.2505602 L57.729344,17.4224926 L57.7148742,17.4224926 Z M65.2389593,21.6348387 C65.0797962,21.4629062 65.0074491,21.1620244 65.0074491,20.7608485 L65.0074491,14.8864884 L66.830593,14.8864884 L66.830593,13.138508 L65.0074491,13.138508 L65.0074491,10.588176 L62.6923459,10.588176 L62.6923459,13.138508 L60.9994269,13.138508 L60.9994269,14.8864884 L62.6923459,14.8864884 L62.6923459,20.8468148 C62.6923459,22.8526939 63.5894484,23.8556334 65.3691842,23.8556334 C65.8611435,23.8556334 66.367572,23.7839949 66.90294,23.6263901 L66.90294,21.7924435 C66.6280212,21.864082 66.3531029,21.8927375 66.0926537,21.8927375 C65.6730414,21.9070652 65.3981225,21.8210989 65.2389593,21.6348387 Z M75.1939028,13.1528357 L77.509006,13.1528357 L77.509006,23.6693732 L75.1939028,23.6693732 L75.1939028,13.1528357 Z M90.6472161,20.2880342 L88.4623372,13.1528357 L85.9591325,13.1528357 L89.5909505,23.6120624 L89.2581543,24.514708 C89.0845214,25.0305055 88.8530112,25.3886982 88.549154,25.6036137 C88.2597659,25.8185294 87.8112147,25.9331511 87.2324392,25.9331511 L86.7983571,25.9044956 L86.7983571,27.7384422 C87.2035003,27.8530639 87.5797045,27.9103747 87.9125006,27.9103747 C89.4173175,27.9103747 90.488053,27.0220568 91.1247063,25.2597488 L95.2340139,13.1528357 L92.7597475,13.1528357 L90.6472161,20.2880342 Z M82.0523956,9.48494252 C81.4157423,10.1153617 81.0974159,11.0180073 81.0974159,12.1928793 L81.0974159,13.1528357 L79.520252,13.1528357 L79.520252,14.9008161 L81.0974159,14.9008161 L81.0974159,23.6693732 L83.4125191,23.6693732 L83.4125191,14.9008161 L85.5105812,14.9008161 L85.5105812,13.1528357 L83.4125191,13.1528357 L83.4125191,12.2215347 C83.4125191,11.0609904 83.9623557,10.4878821 85.0764992,10.4878821 C85.4092953,10.4878821 85.7131525,10.5165375 85.9591325,10.5595206 L86.0170097,8.71124632 C85.5539893,8.59662465 85.134377,8.53931384 84.7147641,8.53931384 C83.5861514,8.52498612 82.689049,8.85452338 82.0523956,9.48494252 Z M77.509006,8.52498612 L77.509006,10.588176 L75.1939028,10.588176 L75.1939028,8.52498612 L77.509006,8.52498612 Z" id="Combined-Shape"></path>
            </g>
        </g>
    </g>
</svg>