<?xml version="1.0" encoding="UTF-8"?>
<svg width="35px" height="36px" viewBox="0 0 35 36" version="1.1" xmlns="http://www.w3.org/2000/svg" xmlns:xlink="http://www.w3.org/1999/xlink">
    <!-- Generator: Sketch 47.1 (45422) - http://www.bohemiancoding.com/sketch -->
    <title>client-image1</title>
    <desc>Created with Sketch.</desc>
    <defs>
        <polygon id="path-1" points="0.657 35.213 34.91 35.213 34.91 0.96 0.657 0.96"></polygon>
    </defs>
    <g id="Page-1" stroke="none" stroke-width="1" fill="none" fill-rule="evenodd">
        <g id="Desktop-HD" transform="translate(-482.000000, -105.000000)">
            <g id="Page-1" transform="translate(481.000000, 100.000000)">
                <g id="client-image1" transform="translate(1.000000, 5.000000)">
                    <mask id="mask-2" fill="white">
                        <use xlink:href="#path-1"></use>
                    </mask>
                    <use id="Fill-2" fill="#383839" xlink:href="#path-1"></use>
                    <g id="Group-33" mask="url(#mask-2)" fill="#FEFEFE">
                        <g transform="translate(0.000000, 0.125000)">
                            <path d="M8.2562,27.9496 L7.3672,28.8376 L6.7822,28.2516 L7.6692,27.3636 L5.3732,25.0676 C5.0002,24.6946 4.9492,24.6236 4.4842,24.8656 C4.3142,24.9566 4.1302,24.9556 3.9902,24.8136 C3.6972,24.5206 4.0102,24.1696 4.0502,24.1276 L6.9062,21.2726 C6.9462,21.2316 7.2982,20.9196 7.5922,21.2106 C7.7342,21.3536 7.7352,21.5356 7.6442,21.7066 C7.4012,22.1706 7.4722,22.2216 7.8462,22.5946 L13.1452,27.8946 C13.5182,28.2696 13.5692,28.3406 14.0342,28.0966 C14.2062,28.0066 14.3872,28.0076 14.5292,28.1486 C14.8212,28.4426 14.5102,28.7956 14.4702,28.8366 L11.6142,31.6906 C11.5732,31.7316 11.2192,32.0436 10.9272,31.7516 C10.7862,31.6096 10.7852,31.4276 10.8752,31.2556 C11.1182,30.7916 11.0472,30.7416 10.6732,30.3676 L8.2562,27.9496 Z M8.2172,35.0876 L7.0522,35.0876 C7.0552,35.0816 7.0582,35.0756 7.0622,35.0696 C7.3032,34.6076 7.2332,34.5556 6.8592,34.1816 L1.5592,28.8826 C1.1842,28.5076 1.1352,28.4366 0.6702,28.6786 C0.6662,28.6816 0.6622,28.6836 0.6572,28.6856 L0.6572,27.5206 L3.0922,25.0856 C3.1322,25.0466 3.4852,24.7326 3.7772,25.0246 C3.9192,25.1676 3.9202,25.3486 3.8292,25.5206 C3.5862,25.9856 3.6572,26.0356 4.0322,26.4106 L9.3312,31.7086 C9.7052,32.0836 9.7552,32.1546 10.2202,31.9126 C10.3922,31.8216 10.5742,31.8216 10.7152,31.9636 C11.0082,32.2566 10.6952,32.6096 10.6552,32.6496 L8.2172,35.0876 Z" id="Fill-3"></path>
                            <path d="M22.7669,5.4114 L25.4299,2.7484 L32.9949,10.3104 L30.3309,12.9754 C30.2899,13.0154 29.9359,13.3284 29.6439,13.0354 C29.5019,12.8934 29.5019,12.7104 29.5929,12.5404 C29.8349,12.0754 29.7649,12.0244 29.3899,11.6504 L24.0899,6.3514 C23.7159,5.9784 23.6659,5.9064 23.2009,6.1494 C23.0289,6.2394 22.8469,6.2394 22.7059,6.0984 C22.4129,5.8054 22.7269,5.4514 22.7669,5.4114 L22.7669,5.4114 Z M27.3429,0.8344 L28.9269,0.8344 L30.1869,2.0954 C30.2379,2.1454 30.4209,2.3494 30.1169,2.6504 C29.9449,2.8224 29.7939,2.7724 29.5919,2.6714 C28.5109,2.1124 27.4999,2.1334 26.4709,2.8794 L25.8839,2.2934 L27.3429,0.8344 Z M34.9109,6.6784 L34.9109,8.3944 L33.4479,9.8564 L32.8629,9.2704 C33.5799,8.3514 33.6479,7.1704 33.1109,6.0894 C33.0299,5.8664 32.9289,5.6434 33.1109,5.4634 C33.4339,5.1394 33.7059,5.4734 33.7459,5.5144 L34.9109,6.6784 Z M29.2629,5.6704 C29.5749,5.1354 29.3719,4.5494 29.0779,4.0734 C28.9589,3.8534 28.8569,3.6294 29.0679,3.4174 C29.3799,3.1064 29.6959,3.5194 29.7769,3.6004 L31.9599,5.7844 C32.0409,5.8644 32.4549,6.1794 32.1429,6.4914 C31.9309,6.7044 31.7089,6.6014 31.4849,6.4804 C31.0099,6.1874 30.4239,5.9864 29.8899,6.2964 L29.2629,5.6704 Z" id="Fill-5"></path>
                            <path d="M19.8747,33.8389 L18.6257,35.0879 L17.9607,35.0879 C17.9787,35.0479 17.9997,35.0079 18.0207,34.9649 C18.0957,34.8229 17.9307,34.6799 17.8457,34.5949 L14.8657,31.6149 C14.7797,31.5299 14.6387,31.3659 14.4967,31.4399 C14.3437,31.5139 14.2187,31.6049 14.0757,31.4629 C13.9277,31.3149 14.0527,31.1549 14.1667,31.0419 L15.6217,29.5869 L19.8747,33.8389 Z" id="Fill-7"></path>
                            <path d="M29.4026,15.8058 L30.7966,14.4128 L34.4116,18.0288 C34.6216,18.2388 34.6506,18.2788 34.9106,18.1428 L34.9106,18.8038 L33.5476,20.1658 C33.5246,20.1888 33.3256,20.3658 33.1606,20.1998 C33.0816,20.1208 33.0816,20.0188 33.1326,19.9218 C33.2696,19.6608 33.2286,19.6318 33.0196,19.4218 L29.4026,15.8058 Z M33.1956,14.6628 C33.2186,14.6858 33.3436,14.8448 33.1716,15.0148 C33.0136,15.1738 32.8366,15.0548 32.6956,14.9458 C32.3426,14.6968 31.8876,14.4018 31.3816,14.4868 L31.0516,14.1578 L31.8706,13.3378 L33.1956,14.6628 Z M28.3286,16.8798 L29.1476,16.0618 L29.4776,16.3908 C29.3916,16.8978 29.6876,17.3518 29.9376,17.7048 C30.0456,17.8468 30.1646,18.0228 30.0056,18.1818 C29.8356,18.3518 29.6766,18.2278 29.6526,18.2048 L28.3286,16.8798 Z" id="Fill-9"></path>
                            <path d="M32.1944,33.4131 C32.1944,32.8601 32.6424,32.4531 33.1724,32.4531 C33.6964,32.4531 34.1454,32.8601 34.1454,33.4131 C34.1454,33.9711 33.6964,34.3781 33.1724,34.3781 C32.6424,34.3781 32.1944,33.9711 32.1944,33.4131 L32.1944,33.4131 Z M33.1724,34.2181 C33.6084,34.2181 33.9524,33.8771 33.9524,33.4131 C33.9524,32.9571 33.6084,32.6141 33.1724,32.6141 C32.7314,32.6141 32.3874,32.9571 32.3884,33.4131 C32.3884,33.8771 32.7314,34.2181 33.1724,34.2181 L33.1724,34.2181 Z M32.9684,33.9711 L32.8004,33.9711 L32.8004,32.8601 L33.2234,32.8601 C33.4854,32.8601 33.6154,32.9571 33.6154,33.1761 C33.6154,33.3751 33.4904,33.4621 33.3284,33.4821 L33.6434,33.9711 L33.4554,33.9711 L33.1624,33.4901 L32.9684,33.4901 L32.9684,33.9711 Z M33.1694,33.3471 C33.3124,33.3471 33.4394,33.3371 33.4394,33.1661 C33.4394,33.0291 33.3154,33.0031 33.1974,33.0031 L32.9684,33.0031 L32.9684,33.3471 L33.1694,33.3471 Z" id="Fill-11"></path>
                            <path d="M10.9734,18.0741 C10.6704,18.7201 10.9344,19.0631 11.1874,19.3161 L16.4254,24.5541 C16.6774,24.8071 17.0224,25.0701 17.6674,24.7671 L18.2544,25.3541 C15.9224,27.3011 13.1954,26.5721 11.1824,24.5591 C9.1704,22.5461 8.4404,19.8181 10.3874,17.4871 L10.9734,18.0741 Z M18.1224,24.3141 C18.4244,23.6691 18.1614,23.3241 17.9074,23.0711 L12.6704,17.8321 C12.4174,17.5801 12.0734,17.3181 11.4284,17.6201 L10.8414,17.0341 C13.1724,15.0871 15.9014,15.8161 17.9134,17.8281 C19.9254,19.8411 20.6554,22.5691 18.7084,24.9001 L18.1224,24.3141 Z" id="Fill-13"></path>
                            <path d="M29.2724,13.4066 C29.1294,13.2666 28.9494,13.2646 28.7764,13.3566 C28.3124,13.5976 28.2624,13.5276 27.8874,13.1526 L22.5884,7.8546 C22.2134,7.4806 22.1424,7.4306 22.3864,6.9646 C22.4754,6.7936 22.4754,6.6106 22.3344,6.4696 C22.0414,6.1766 21.6884,6.4896 21.6484,6.5296 L18.9834,9.1936 L21.1594,13.2266 L21.1384,13.2456 L16.9564,11.2216 L14.3944,13.7836 C14.2734,13.9046 13.9694,14.2076 14.2824,14.5206 C14.5244,14.7646 14.8184,14.5116 14.9494,14.4006 C15.1314,14.2396 15.2934,14.3206 15.5354,14.3816 C15.7474,14.4316 15.9494,14.5336 16.1524,14.6356 L24.5184,18.7846 L24.8114,18.4926 L20.7184,10.9286 L25.4144,15.6246 C25.7894,15.9996 25.8594,16.0506 25.6174,16.5136 C25.5254,16.6866 25.5264,16.8676 25.6694,17.0096 C25.9614,17.3016 26.3144,16.9906 26.3554,16.9496 L29.2124,14.0936 C29.2534,14.0526 29.5644,13.6996 29.2724,13.4066" id="Fill-15"></path>
                            <path d="M21.3678,18.741 L19.6288,17.002 L17.3958,15.898 L17.3758,15.919 L20.7828,19.327 C21.8848,20.752 20.8458,21.004 21.2808,21.439 C21.5938,21.751 21.9868,21.318 22.0978,21.206 L23.2478,20.057 C23.3588,19.946 23.7918,19.554 23.4778,19.24 C23.0438,18.805 22.7928,19.844 21.3678,18.741" id="Fill-17"></path>
                            <path d="M15.8777,29.3304 C16.8327,28.3524 18.3107,28.2154 19.8457,29.6154 C21.2447,30.8884 21.0747,32.6394 20.1307,33.5834 L19.8007,33.2534 C20.1027,32.8604 19.7947,32.5194 19.5787,32.3044 L17.1567,29.8814 C16.9407,29.6654 16.5997,29.3594 16.2077,29.6604 L15.8777,29.3304 Z" id="Fill-19"></path>
                            <path d="M17.9977,27.2105 L19.4987,25.7095 L23.7507,29.9625 L22.2507,31.4635 C22.2277,31.4855 22.0287,31.6615 21.8637,31.4975 C21.7847,31.4175 21.7837,31.3155 21.8347,31.2185 C21.9717,30.9575 21.9317,30.9295 21.7217,30.7185 L18.7427,27.7395 C18.5327,27.5295 18.5037,27.4895 18.2427,27.6245 C18.1457,27.6775 18.0427,27.6775 17.9627,27.5975 C17.7987,27.4325 17.9757,27.2325 17.9977,27.2105 L17.9977,27.2105 Z M19.7547,25.4535 L21.0217,24.1865 L22.1767,25.3395 C22.2047,25.3685 22.3077,25.4825 22.1367,25.6535 C22.0397,25.7495 21.9557,25.7215 21.8407,25.6645 C21.2327,25.3515 20.6647,25.3635 20.0837,25.7835 L19.7547,25.4535 Z M23.6777,29.3765 C24.0807,28.8595 24.1207,28.1945 23.8197,27.5855 C23.7747,27.4605 23.7167,27.3355 23.8187,27.2335 C24.0017,27.0515 24.1547,27.2385 24.1777,27.2615 L25.3147,28.3995 L24.0077,29.7065 L23.6777,29.3765 Z M21.6527,27.3525 C21.8297,27.0515 21.7157,26.7225 21.5507,26.4545 C21.4817,26.3295 21.4247,26.2035 21.5447,26.0845 C21.7217,25.9085 21.8977,26.1415 21.9437,26.1875 L23.1717,27.4155 C23.2167,27.4605 23.4497,27.6365 23.2727,27.8135 C23.1547,27.9335 23.0287,27.8765 22.9037,27.8075 C22.6367,27.6435 22.3077,27.5285 22.0057,27.7055 L21.6527,27.3525 Z" id="Fill-21"></path>
                            <path d="M23.2161,21.9921 C23.7561,21.4511 24.1311,21.1891 24.5531,21.0771 C25.2241,20.9061 25.7641,21.1161 26.2421,21.5931 C26.7191,22.0701 26.9301,22.6111 26.7591,23.2821 C26.6451,23.7031 26.3841,24.0791 25.8431,24.6191 L25.5131,24.2901 C25.7861,23.8911 25.5711,23.6411 25.2921,23.3611 L24.4341,22.5031 C24.1781,22.2481 23.8931,22.0651 23.5461,22.3221 L23.2161,21.9921 Z M22.2041,24.2791 C21.9931,24.0681 21.9651,24.0291 21.7031,24.1641 C21.6071,24.2161 21.5041,24.2151 21.4251,24.1351 C21.2601,23.9711 21.4371,23.7711 21.4591,23.7491 L22.9601,22.2481 L26.5771,25.8651 C26.7861,26.0741 26.8151,26.1151 27.0761,25.9781 C27.1731,25.9271 27.2761,25.9261 27.3551,26.0061 C27.5211,26.1711 27.3441,26.3701 27.3211,26.3921 L25.7121,28.0011 C25.6901,28.0251 25.5351,28.1561 25.3701,27.9921 C25.2911,27.9121 25.2771,27.8231 25.3281,27.7261 C25.4651,27.4651 25.3931,27.4671 25.1831,27.2571 L22.2041,24.2791 Z" id="Fill-23"></path>
                            <path d="M26.8202,18.8782 C26.6492,19.2422 26.7962,19.4352 26.9382,19.5762 L29.8842,22.5212 C30.0272,22.6642 30.2202,22.8122 30.5832,22.6412 L30.9132,22.9712 C29.6002,24.0682 28.0652,23.6602 26.9342,22.5272 C25.8022,21.3962 25.3932,19.8612 26.4902,18.5472 L26.8202,18.8782 Z M30.8392,22.3852 C31.0102,22.0222 30.8622,21.8292 30.7192,21.6862 L27.7752,18.7412 C27.6322,18.5982 27.4392,18.4512 27.0752,18.6212 L26.7462,18.2922 C28.0602,17.1942 29.5942,17.6042 30.7252,18.7352 C31.8572,19.8672 32.2672,21.4012 31.1692,22.7152 L30.8392,22.3852 Z" id="Fill-25"></path>
                            <path d="M4.7621,13.8046 L6.0711,12.4956 L9.4701,15.8936 C9.6681,16.0916 9.6941,16.1296 9.9401,16.0006 C10.0311,15.9526 10.1271,15.9526 10.2021,16.0276 C10.3571,16.1826 10.1911,16.3696 10.1701,16.3916 L8.6581,17.9036 C8.6361,17.9246 8.4491,18.0906 8.2941,17.9356 C8.2191,17.8606 8.2191,17.7646 8.2671,17.6736 C8.3961,17.4276 8.3581,17.4006 8.1611,17.2036 L4.7621,13.8046 Z M8.3261,12.7306 C8.3481,12.7516 8.4651,12.9016 8.3051,13.0616 C8.1551,13.2116 7.9891,13.0996 7.8561,12.9976 C7.5251,12.7626 7.0971,12.4846 6.6221,12.5646 L6.3121,12.2546 L7.0811,11.4856 L8.3261,12.7306 Z M3.7521,14.8146 L4.5221,14.0456 L4.8311,14.3546 C4.7511,14.8306 5.0291,15.2586 5.2641,15.5896 C5.3661,15.7236 5.4781,15.8886 5.3281,16.0386 C5.1681,16.1986 5.0181,16.0816 4.9971,16.0596 L3.7521,14.8146 Z" id="Fill-27"></path>
                            <path d="M12.2487,13.1155 C12.4467,13.3135 12.4727,13.3505 12.7187,13.2225 C12.8097,13.1745 12.9057,13.1745 12.9807,13.2485 C13.1357,13.4035 12.9697,13.5915 12.9487,13.6125 L11.4367,15.1245 C11.4147,15.1465 11.2277,15.3115 11.0727,15.1565 C10.9987,15.0815 10.9977,14.9855 11.0467,14.8945 C11.1747,14.6495 11.1367,14.6225 10.9397,14.4245 L8.1397,11.6245 C7.9417,11.4265 7.9147,11.3895 7.6687,11.5175 C7.5777,11.5655 7.4817,11.5655 7.4077,11.4905 C7.2527,11.3355 7.4177,11.1485 7.4387,11.1275 L8.9517,9.6145 C8.9727,9.5935 9.1597,9.4275 9.3147,9.5835 C9.3897,9.6575 9.3897,9.7545 9.3417,9.8455 C9.2137,10.0905 9.2507,10.1175 9.4487,10.3155 L12.2487,13.1155 Z M11.6827,11.1275 L11.2117,11.5975 L10.9017,11.2875 L11.3727,10.8175 L10.1597,9.6045 C9.9617,9.4065 9.9347,9.3695 9.6887,9.4975 C9.5987,9.5455 9.5017,9.5455 9.4267,9.4705 C9.2717,9.3155 9.4377,9.1285 9.4597,9.1075 L10.9717,7.5955 C10.9927,7.5735 11.1797,7.4085 11.3347,7.5635 C11.4097,7.6385 11.4097,7.7345 11.3617,7.8255 C11.2337,8.0705 11.2707,8.0975 11.4687,8.2955 L14.2687,11.0955 C14.4667,11.2935 14.4927,11.3305 14.7387,11.2025 C14.8297,11.1545 14.9257,11.1545 15.0007,11.2285 C15.1557,11.3835 14.9897,11.5705 14.9687,11.5925 L13.4567,13.1045 C13.4347,13.1265 13.2477,13.2915 13.0927,13.1365 C13.0187,13.0625 13.0187,12.9655 13.0667,12.8745 C13.1947,12.6295 13.1567,12.6025 12.9597,12.4045 L11.6827,11.1275 Z" id="Fill-29"></path>
                            <path d="M11.4752,7.0914 L12.8862,5.6804 L16.8832,9.6774 L15.4722,11.0884 C15.4512,11.1104 15.2642,11.2754 15.1092,11.1204 C15.0342,11.0454 15.0342,10.9494 15.0822,10.8584 C15.2102,10.6134 15.1732,10.5864 14.9752,10.3884 L12.1752,7.5884 C11.9772,7.3904 11.9512,7.3534 11.7052,7.4814 C11.6142,7.5294 11.5182,7.5294 11.4432,7.4554 C11.2882,7.2994 11.4542,7.1124 11.4752,7.0914 L11.4752,7.0914 Z M13.1262,5.4404 L14.3182,4.2484 L15.4032,5.3334 C15.4292,5.3604 15.5262,5.4664 15.3652,5.6274 C15.2742,5.7184 15.1942,5.6914 15.0882,5.6374 C14.5162,5.3444 13.9812,5.3544 13.4362,5.7504 L13.1262,5.4404 Z M16.8132,9.1274 C17.1932,8.6414 17.2302,8.0164 16.9472,7.4444 C16.9042,7.3264 16.8512,7.2094 16.9472,7.1124 C17.1182,6.9414 17.2622,7.1184 17.2842,7.1394 L18.3522,8.2084 L17.1242,9.4374 L16.8132,9.1274 Z M14.9112,7.2244 C15.0772,6.9414 14.9702,6.6314 14.8152,6.3804 C14.7512,6.2634 14.6972,6.1454 14.8092,6.0334 C14.9752,5.8674 15.1412,6.0864 15.1842,6.1294 L16.3382,7.2834 C16.3812,7.3264 16.6002,7.4924 16.4342,7.6584 C16.3222,7.7704 16.2042,7.7164 16.0872,7.6524 C15.8352,7.4974 15.5262,7.3904 15.2422,7.5564 L14.9112,7.2244 Z" id="Fill-31"></path>
                        </g>
                    </g>
                </g>
            </g>
        </g>
    </g>
</svg>