<?xml version="1.0" encoding="UTF-8"?>
<svg width="50px" height="14px" viewBox="0 0 50 14" version="1.1" xmlns="http://www.w3.org/2000/svg" xmlns:xlink="http://www.w3.org/1999/xlink">
    <!-- Generator: Sketch 47.1 (45422) - http://www.bohemiancoding.com/sketch -->
    <title>client-image3</title>
    <desc>Created with Sketch.</desc>
    <defs>
        <linearGradient x1="50%" y1="0%" x2="50%" y2="100%" id="linearGradient-1">
            <stop stop-color="#FFFFFF" stop-opacity="0.5" offset="0%"></stop>
            <stop stop-color="#000000" stop-opacity="0.5" offset="100%"></stop>
        </linearGradient>
        <linearGradient x1="50%" y1="0%" x2="50%" y2="100%" id="linearGradient-2">
            <stop stop-color="#383839" offset="0%"></stop>
            <stop stop-color="#000000" stop-opacity="0.5" offset="100%"></stop>
        </linearGradient>
        <path d="M348.3619,25.9639 C348.4029,26.1579 348.3809,26.3569 348.4079,26.5529 C348.4379,27.0859 348.4759,27.6199 348.5019,28.1539 C348.1299,28.2459 347.7489,28.2999 347.3669,28.3339 C347.1599,28.3689 346.9489,28.3489 346.7419,28.3749 C346.1579,28.3929 345.5659,28.3649 344.9989,28.2109 C344.5139,28.0759 344.0449,27.8289 343.7179,27.4379 C343.3899,27.0569 343.2089,26.5699 343.1269,26.0789 C343.0209,25.4409 343.0679,24.7919 343.0639,24.1489 C343.0659,23.9069 343.0569,23.6649 343.0759,23.4229 C343.0749,22.7629 343.0879,22.1019 343.0919,21.4409 C343.1129,21.1299 343.1049,20.8179 343.1109,20.5069 C342.7369,20.5059 342.3629,20.5059 341.9899,20.5059 C342.0039,19.9479 341.9799,19.3899 341.9909,18.8309 C342.5269,18.7439 343.0689,18.5619 343.4779,18.1919 C343.8269,17.8809 344.0519,17.4549 344.1919,17.0139 C344.3209,16.6029 344.4049,16.1769 344.4539,15.7499 C345.0759,15.7219 345.6979,15.7499 346.3199,15.7349 C346.3289,15.9439 346.2839,16.1499 346.2899,16.3579 C346.2539,16.5869 346.2759,16.8189 346.2409,17.0479 C346.2299,17.4839 346.1949,17.9209 346.2119,18.3579 L346.2229,18.3709 C346.8779,18.3839 347.5329,18.3659 348.1879,18.3799 C348.1819,18.9529 348.1899,19.5269 348.1869,20.0989 C348.1839,20.2349 348.1959,20.3719 348.1769,20.5069 C347.5109,20.5029 346.8449,20.5089 346.1799,20.5039 C346.1719,21.6259 346.1789,22.7469 346.1769,23.8689 C346.1769,24.1859 346.1729,24.5039 346.1849,24.8209 C346.2229,25.1729 346.2539,25.5559 346.4839,25.8439 C346.6349,26.0419 346.8819,26.1309 347.1199,26.1649 C347.5399,26.2099 347.9909,26.1849 348.3619,25.9639 Z M340.6986,19.3088 C341.0356,19.7098 341.2086,20.2258 341.2536,20.7428 C341.2996,21.3608 341.2106,22.0138 340.8726,22.5458 C340.6286,22.9448 340.2516,23.2448 339.8406,23.4598 C339.4086,23.6818 338.9356,23.8128 338.4596,23.8988 C337.9526,23.9908 337.4366,24.0298 336.9226,24.0338 C336.6436,24.0698 336.3646,24.0218 336.0856,24.0318 C335.8566,24.0288 335.6276,24.0238 335.3986,24.0198 C335.3896,24.3178 335.4276,24.6188 335.5226,24.9018 C335.6436,25.2768 335.8786,25.6168 336.1976,25.8518 C336.5076,26.0858 336.8796,26.2238 337.2576,26.2988 C337.4496,26.3468 337.6486,26.3438 337.8436,26.3668 C338.8206,26.3928 339.7996,26.1388 340.6526,25.6628 C340.6916,25.8738 340.6686,26.0888 340.6976,26.3008 C340.7126,26.4758 340.6986,26.6538 340.7236,26.8288 C340.7446,26.9868 340.7306,27.1478 340.7456,27.3058 C340.7696,27.4918 340.7686,27.6798 340.7666,27.8668 C340.0766,28.1478 339.3346,28.2688 338.5976,28.3398 C337.8726,28.4078 337.1406,28.4038 336.4166,28.3438 C335.8396,28.2888 335.2626,28.1908 334.7176,27.9918 C334.2486,27.8268 333.8056,27.5778 333.4366,27.2438 C333.1076,26.9498 332.8496,26.5828 332.6516,26.1898 C332.3156,25.5078 332.1636,24.7508 332.0976,23.9968 C331.6766,23.9688 331.2546,23.9648 330.8326,23.9578 C330.6596,23.9378 330.4856,23.9528 330.3136,23.9428 C330.2846,24.0078 330.2946,24.0798 330.2906,24.1488 C330.2856,24.4568 330.2716,24.7638 330.2616,25.0718 C330.2636,26.1018 330.2396,27.1398 330.4026,28.1608 C330.1926,28.1638 329.9826,28.1608 329.7726,28.1688 C329.5956,28.1898 329.4166,28.1808 329.2386,28.1868 C329.0996,28.1898 328.9586,28.2028 328.8196,28.1818 C328.8616,28.1898 328.9036,28.1988 328.9456,28.2088 C328.2286,28.2328 327.5156,28.3028 326.7996,28.3338 C326.5246,28.3708 326.2466,28.3438 325.9716,28.3748 C325.3646,28.3888 324.7546,28.3748 324.1566,28.2608 C323.5696,28.1508 322.9836,27.9308 322.5366,27.5238 C322.0486,27.0808 321.8036,26.4288 321.7396,25.7848 C321.7516,25.7638 321.7626,25.7428 321.7726,25.7218 C321.7596,25.7148 321.7336,25.7018 321.7206,25.6948 C321.7136,25.3288 321.6826,24.9578 321.7646,24.5978 C321.8616,24.0968 322.1256,23.6288 322.5136,23.2958 C323.0186,22.8458 323.6716,22.6078 324.3206,22.4538 C324.7536,22.3558 325.1946,22.2948 325.6366,22.2608 C326.1606,22.2148 326.6866,22.2318 327.2126,22.2318 C327.2536,22.0078 327.2196,21.7768 327.2156,21.5498 C327.1726,21.1808 327.0896,20.7848 326.8166,20.5128 C326.5506,20.2308 326.1506,20.1308 325.7766,20.1038 C325.4916,20.0698 325.2046,20.0898 324.9196,20.1168 L324.9366,20.0878 C324.8716,20.1518 324.7686,20.1268 324.6866,20.1478 C324.1306,20.2418 323.5856,20.4058 323.0726,20.6398 C322.9506,20.6878 322.8376,20.7578 322.7146,20.8028 C322.6766,20.3638 322.6716,19.9228 322.6386,19.4828 C322.6336,19.1868 322.5986,18.8938 322.5976,18.5978 C323.3536,18.3088 324.1616,18.1828 324.9636,18.1058 C325.0806,18.1048 325.1966,18.0938 325.3126,18.0788 C325.6566,18.0748 325.9996,18.0328 326.3436,18.0548 C326.4046,18.0638 326.4676,18.0678 326.5296,18.0598 C326.6846,18.0788 326.8406,18.0748 326.9956,18.0678 C326.9836,18.0818 326.9716,18.0948 326.9596,18.1088 C327.0496,18.1158 327.1396,18.0948 327.2296,18.1028 C327.9206,18.1778 328.6326,18.3278 329.2086,18.7388 C329.6576,19.0528 329.9566,19.5408 330.1256,20.0548 C330.2886,20.5728 330.3446,21.1188 330.3496,21.6598 C330.3696,21.8528 330.3446,22.0468 330.3426,22.2398 C330.4766,22.2698 330.6146,22.2528 330.7496,22.2578 C331.0666,22.2588 331.3826,22.2618 331.6986,22.2728 C331.8396,22.2888 331.9806,22.2948 332.1226,22.2938 C332.2146,21.3748 332.4676,20.4428 333.0196,19.6888 C333.1566,19.4938 333.3326,19.3318 333.4956,19.1598 C333.8856,18.8058 334.3596,18.5528 334.8596,18.3918 C335.4786,18.1838 336.1316,18.1038 336.7816,18.0748 C337.5626,18.0548 338.3556,18.0888 339.1096,18.3128 C339.5926,18.4518 340.0606,18.6758 340.4356,19.0168 C340.5406,19.0978 340.6216,19.2018 340.6986,19.3088 Z M368.5093,20.2988 C368.6993,21.0478 368.5253,26.3228 368.6863,27.9488 C368.6933,28.0198 368.7043,28.0898 368.7083,28.1618 C368.4383,28.1638 368.1683,28.1558 367.8993,28.1818 C367.5733,28.1728 367.2493,28.2218 366.9233,28.2188 C366.6993,28.2468 366.4723,28.2348 366.2493,28.2678 C366.0443,28.2628 365.8423,28.3058 365.6373,28.3028 C364.9313,28.3508 364.2243,28.3948 363.5173,28.3748 C363.3513,28.3498 363.1833,28.3678 363.0183,28.3388 C362.4243,28.2798 361.8243,28.1478 361.3013,27.8498 C360.8993,27.6238 360.5623,27.2788 360.3573,26.8648 C360.1863,26.5348 360.0993,26.1678 360.0513,25.8018 C360.0303,25.6608 360.0403,25.5178 360.0203,25.3768 C359.9993,25.1908 360.0343,25.0058 360.0413,24.8198 C360.1013,24.2868 360.3353,23.7698 360.7223,23.3948 C361.0223,23.0878 361.4043,22.8738 361.7993,22.7118 C362.4793,22.4428 363.2073,22.3218 363.9323,22.2608 C364.4673,22.2158 365.0043,22.2318 365.5403,22.2308 C365.5523,21.8708 365.5443,21.5078 365.4613,21.1558 C365.4003,20.9098 365.2963,20.6648 365.1083,20.4888 C364.9273,20.3048 364.6783,20.2098 364.4323,20.1498 C363.7373,20.0168 363.0193,20.1078 362.3433,20.2948 C361.9973,20.3878 361.6603,20.5158 361.3333,20.6618 C361.2273,20.7068 361.1323,20.7788 361.0173,20.7968 C361.0173,20.6208 361.0103,20.4448 360.9913,20.2688 C360.9913,19.9978 360.9553,19.7288 360.9573,19.4578 C360.9223,19.1738 360.9313,18.8878 360.9043,18.6038 C361.4933,18.3718 362.1193,18.2458 362.7463,18.1668 C362.9623,18.1378 363.1793,18.1078 363.3983,18.0998 C363.6313,18.0588 363.8693,18.0898 364.1033,18.0538 C364.2983,18.0618 364.4963,18.0298 364.6903,18.0648 C364.8763,18.0698 365.0613,18.0718 365.2473,18.0758 C365.8673,18.1278 366.4993,18.2138 367.0703,18.4798 C367.3563,18.6088 367.6213,18.7868 367.8423,19.0118 C368.1733,19.3718 368.3913,19.8258 368.5093,20.2988 Z M358.8672,27.3626 C358.8412,27.6286 358.8712,27.8956 358.8942,28.1606 C357.7932,28.1636 356.6912,28.1616 355.5902,28.1616 C355.5922,27.7936 355.6312,27.4276 355.6272,27.0586 C355.6192,26.8886 355.6522,26.7216 355.6482,26.5516 C355.6542,26.2266 355.6572,25.9006 355.6592,25.5756 C355.6862,25.2676 355.6742,24.9586 355.6812,24.6506 C355.6882,23.8506 355.6852,23.0506 355.6752,22.2506 C355.6822,22.0446 355.6512,21.8396 355.6542,21.6346 C355.6302,21.3666 355.5942,21.0956 355.4962,20.8436 C355.4192,20.6386 355.2912,20.4476 355.1082,20.3236 C354.8742,20.1526 354.5782,20.1106 354.2972,20.0896 C353.8952,20.0746 353.4912,20.1256 353.1032,20.2316 C353.0502,20.2506 352.9962,20.2686 352.9432,20.2866 C352.9402,20.5776 352.9382,20.8686 352.9222,21.1586 C352.9202,21.6716 352.9092,22.1846 352.9112,22.6966 C352.8762,23.2636 352.9022,23.8336 352.8932,24.4016 C352.9212,24.6616 352.9052,24.9236 352.9162,25.1846 C352.9102,25.6406 352.9402,26.0966 352.9452,26.5526 C352.9752,27.0886 352.9852,27.6266 353.0312,28.1616 C351.9282,28.1616 350.8252,28.1616 349.7222,28.1626 C349.7412,27.6536 349.7762,27.1446 349.7822,26.6356 C349.7922,26.2916 349.7832,25.9466 349.8082,25.6026 C349.8232,23.9266 349.8232,22.2506 349.8072,20.5746 C349.7812,20.2296 349.7892,19.8846 349.7752,19.5396 C349.7552,19.3066 349.7632,19.0736 349.7462,18.8406 C349.7282,18.6866 349.7282,18.5316 349.7222,18.3776 C349.9232,18.3546 350.1262,18.3626 350.3292,18.3556 C351.3202,18.3296 352.3052,18.1986 353.2922,18.1186 C353.4842,18.0926 353.6802,18.1106 353.8722,18.0796 C354.2842,18.0676 354.6962,18.0716 355.1082,18.0746 C355.7122,18.1046 356.3242,18.1766 356.8962,18.3826 C357.3472,18.5396 357.7702,18.7996 358.0792,19.1676 C358.2412,19.3856 358.3902,19.6166 358.4902,19.8696 C358.7292,20.4746 358.7852,21.1336 358.7762,21.7776 C358.7742,22.5136 358.7512,23.2486 358.7592,23.9846 C358.7522,24.3666 358.7712,24.7476 358.7752,25.1286 C358.7792,25.9316 358.8162,26.7336 358.8462,27.5356 C358.8542,27.4776 358.8592,27.4196 358.8672,27.3626 Z M370.0438,19.8521 C369.5448,19.8521 369.1388,19.4461 369.1388,18.9471 C369.1388,18.4481 369.5448,18.0421 370.0438,18.0421 C370.5428,18.0421 370.9488,18.4481 370.9488,18.9471 C370.9488,19.4461 370.5428,19.8521 370.0438,19.8521 Z M337.8976,21.9148 C338.1646,21.6578 338.2656,21.2698 338.2476,20.9078 C338.2366,20.6208 338.1176,20.3218 337.8766,20.1518 C337.6226,19.9588 337.2906,19.9088 336.9796,19.9208 C336.5926,19.9338 336.1966,20.0738 335.9306,20.3648 C335.6096,20.7128 335.4796,21.1858 335.4176,21.6448 C335.3926,21.8768 335.3696,22.1108 335.3786,22.3448 C335.5016,22.3448 335.6256,22.3498 335.7486,22.3678 C335.9906,22.3738 336.2346,22.3738 336.4776,22.3708 C336.5886,22.3558 336.7006,22.3448 336.8126,22.3398 C337.1996,22.2928 337.6056,22.1898 337.8976,21.9148 Z M327.1886,26.3628 C327.2006,26.0818 327.1756,25.7998 327.1816,25.5178 C327.1636,25.3328 327.1656,25.1458 327.1666,24.9598 C327.1966,24.6108 327.1736,24.2608 327.1856,23.9108 C326.7036,23.9028 326.2126,23.8928 325.7436,24.0238 C325.5026,24.0938 325.2616,24.1988 325.0876,24.3848 C324.8646,24.5948 324.7676,24.9108 324.7766,25.2108 C324.7686,25.4818 324.8066,25.7688 324.9636,25.9968 C325.1036,26.2028 325.3356,26.3278 325.5726,26.3858 C326.1036,26.5118 326.6586,26.4638 327.1886,26.3628 Z M365.5103,26.3628 C365.5033,26.0938 365.5123,25.8238 365.4893,25.5558 L365.5333,25.5038 C365.5163,25.5058 365.5003,25.5078 365.4853,25.5118 C365.4833,24.9778 365.4923,24.4438 365.4893,23.9098 C365.1013,23.9088 364.7093,23.8938 364.3253,23.9638 C364.0433,24.0148 363.7573,24.0998 363.5243,24.2738 C363.3503,24.4008 363.2163,24.5838 363.1523,24.7898 C363.0633,25.0678 363.0733,25.3688 363.1313,25.6518 C363.1843,25.9058 363.3443,26.1398 363.5763,26.2628 C363.9053,26.4438 364.2923,26.4618 364.6603,26.4588 C364.9463,26.4618 365.2283,26.4078 365.5103,26.3628 Z M369.6903,18.4414 L369.6903,19.4754 L369.8253,19.4754 L369.8253,19.0214 L369.9523,19.0214 C370.0753,19.0254 370.1313,19.0804 370.1623,19.2244 C370.1923,19.3554 370.2153,19.4454 370.2323,19.4754 L370.3723,19.4754 C370.3513,19.4344 370.3263,19.3334 370.2913,19.1874 C370.2673,19.0784 370.2183,19.0044 370.1373,18.9764 L370.1373,18.9714 C370.2483,18.9344 370.3353,18.8424 370.3353,18.7034 C370.3353,18.6234 370.3053,18.5514 370.2533,18.5044 C370.1873,18.4454 370.0943,18.4194 369.9493,18.4194 C369.8563,18.4194 369.7583,18.4274 369.6903,18.4414 Z M369.8253,18.9184 L369.8253,18.5354 C369.8473,18.5294 369.8933,18.5234 369.9593,18.5234 C370.1023,18.5254 370.2003,18.5844 370.2003,18.7194 C370.2003,18.8394 370.1083,18.9184 369.9633,18.9184 L369.8253,18.9184 Z" id="path-3"></path>
    </defs>
    <g id="Page-1" stroke="none" stroke-width="1" fill="none" fill-rule="evenodd">
        <g id="Desktop-HD" transform="translate(-802.000000, -115.000000)">
            <g id="Page-1" transform="translate(481.000000, 100.000000)">
                <g id="client-image3">
                    <use fill="#D8D8D8" xlink:href="#path-3"></use>
                    <use fill="url(#linearGradient-1)" xlink:href="#path-3"></use>
                    <use fill="url(#linearGradient-1)" xlink:href="#path-3"></use>
                    <use fill="url(#linearGradient-1)" xlink:href="#path-3"></use>
                    <use fill="url(#linearGradient-1)" xlink:href="#path-3"></use>
                    <use fill="url(#linearGradient-1)" xlink:href="#path-3"></use>
                    <use fill="url(#linearGradient-1)" xlink:href="#path-3"></use>
                    <use fill="url(#linearGradient-1)" xlink:href="#path-3"></use>
                    <use fill="url(#linearGradient-1)" xlink:href="#path-3"></use>
                    <use fill="url(#linearGradient-1)" xlink:href="#path-3"></use>
                    <use fill="url(#linearGradient-2)" xlink:href="#path-3"></use>
                </g>
            </g>
        </g>
    </g>
</svg>