<?xml version="1.0" encoding="UTF-8"?>
<svg width="102px" height="77px" viewBox="0 0 102 77" version="1.1" xmlns="http://www.w3.org/2000/svg" xmlns:xlink="http://www.w3.org/1999/xlink">
    <!-- Generator: Sketch 47.1 (45422) - http://www.bohemiancoding.com/sketch -->
    <title>logo</title>
    <desc>Created with Sketch.</desc>
    <defs></defs>
    <g id="Page-1" stroke="none" stroke-width="1" fill="none" fill-rule="evenodd">
        <g id="Desktop-HD" transform="translate(-559.000000, -650.000000)">
            <g id="logo" transform="translate(559.000000, 650.000000)">
                <path d="M29.5893427,68.1203618 C27.978177,72.7241972 24.0348482,75.5713371 18.3849882,75.9898348 C13.4632789,76.3413855 9.03308421,76.4 4.4,76.4 C2.190861,76.4 0.4,74.609139 0.4,72.4 L0.4,13.8 C0.4,11.590861 5.190861,9.8 7.4,9.8 C11.8269158,9.8 13.0713365,9.74899915 17.7989693,9.41134352 C22.6459797,9.04553142 26.3943392,10.5762693 28.5,13.6880355 L28.5,13.2 C28.5,11.621851 29.1787053,10.2644405 30.2715729,9.17157288 C31.2808783,8.16226749 32.5066473,7.53285761 33.9277631,7.41876536 C34.2360752,7.36087783 34.4119337,7.327899 34.5590327,7.30046742 C34.8619828,7.24397216 35.1011309,7.20012726 35.3346371,7.15847973 C35.4737309,7.13376799 35.4737309,7.13376799 35.6146353,7.10915298 C36.2393716,7.00050319 36.9021557,6.89492696 37.9066382,6.74425459 C39.3533466,6.52724833 40.712929,7.11032 41.5719206,8.13739904 C42.0301371,6.62788722 43.3585729,5.48419246 45.0019851,5.31985124 C45.5298695,5.26706281 45.9945973,5.20509909 46.5458158,5.11690414 C46.8667757,5.06555054 48.1118508,4.85210911 48.2979596,4.82109097 C49.1465233,4.67966369 49.9403466,4.55922153 50.8713451,4.4350884 C53.0352638,4.14656591 54.9815765,5.6375465 55.340853,7.70907143 C56.0386859,6.92171664 56.7995212,6.25958419 57.6811992,5.67179882 C59.0896328,4.73284311 60.5116939,4.13999744 62.0821544,3.94451572 C62.8217629,3.79806151 63.407233,3.69245442 64.0119701,3.59554623 C64.1625413,3.57141744 64.3161438,3.54752371 64.4785563,3.52291576 C64.7817576,3.47697616 65.027002,3.44132399 65.6061876,3.35851306 C67.1622682,3.04681587 68.7207835,3.1905576 70.2649111,3.70526681 C71.6212196,4.15736967 72.765909,4.79918955 73.755949,5.71014527 C74.149124,4.53876713 74.8539806,3.50951456 75.8,2.8 C75.9099781,2.71751645 76.0241352,2.64075736 76.142017,2.5700283 C76.9966309,2.05725996 77.6971365,1.72761024 78.5298575,1.51943 L78.7155355,1.4776773 C79.9442835,1.23192769 79.910043,1.23860045 80.329125,1.17077562 C80.8680943,1.08354807 81.8251358,0.994953074 83.2002495,0.904990644 C84.7844001,0.825783118 86.1908074,1.67726106 86.9043687,2.96943327 C87.4969916,1.5373619 88.8705019,0.568591706 90.4334778,0.503467708 C91.0914329,0.476052911 93.0414329,0.382302911 93.4334778,0.365967708 C94.5119887,0.321029755 95.4493149,0.3 96.6,0.3 C99.3546623,0.3 101.284884,3.01936426 100.376005,5.6197686 C96.9234644,15.4978698 95.1288717,20.6783875 91.809773,30.355078 C92.977337,34.0715279 94.0700685,37.5251001 96.2629226,44.4410246 C98.7016523,52.132403 99.7816302,55.5474683 101.116586,59.8026397 C101.924933,62.3792458 100.00043,65 97.3,65 C95.5672589,65 94.9753837,65.0040151 94.2215844,65.0263646 C93.3952495,65.0508647 92.5859127,65.0983721 91.5321819,65.186183 C89.6620649,65.3420261 87.9350294,64.1768426 87.3793707,62.3843951 C87.1211681,64.1470853 85.662245,65.5937258 83.7980149,65.7801488 C83.2423913,65.8357111 82.7543607,65.8922607 82.1248726,65.9719959 C82.2749942,65.9529805 80.8027192,66.142273 80.3297222,66.2000837 C79.5333132,66.2974226 78.7332304,66.3866272 77.7980149,66.4801488 C76.1510368,66.6448466 74.6564315,65.7897485 73.9067562,64.4511117 C71.9503402,66.6399826 69.5078741,68.0576408 66.6844645,68.6223227 C65.2860967,68.9019963 64.6826587,69.0002304 62.8656854,69.259798 L62.7187391,69.2780218 C59.7294065,69.5926884 56.8731397,68.8786217 54.716231,67.0535451 C54.3602297,66.7523132 54.0286997,66.432664 53.7228344,66.0959547 C53.3158492,66.7866763 52.8408201,67.4622301 52.304456,68.1223705 C50.4995288,70.3438194 48.0951122,71.8374721 45.3179732,72.5682981 C45.1990986,72.5995809 45.0788453,72.6253675 44.9575959,72.6455757 C44.2370486,72.7656669 43.7689959,72.8496764 42.778357,73.033128 C41.7691032,73.2200269 41.2619699,73.3111904 40.5138853,73.4361826 C39.0285208,73.7224708 37.661487,73.6445724 36.1322782,73.3047482 C34.5628171,72.9559791 33.1388328,72.2390414 32.0080377,71.1616315 C31.042291,70.3287283 30.1920926,69.2799982 29.5893427,68.1203618 Z M73.4,37.4463588 L73.4,22.7287493 C72.9255458,22.9956987 72.2758758,23.3568178 72.0188008,23.5282012 C71.8526292,23.6389822 71.1638537,24.1165332 70.971862,24.2445277 C70.2392351,24.7329456 69.5834913,25.0947353 68.7855627,25.4139068 C68.0332185,25.7148445 67.2619634,25.7709583 66.5443122,25.6313432 C66.7160232,25.964536 66.9491541,26.3746787 67.2684222,26.9075022 C68.3864641,28.8537232 69.1192932,30.1123676 70.6515334,32.7283876 C71.8724124,34.8128151 72.5919216,36.0459848 73.4,37.4463588 Z M55.4,34.5728149 L55.4,46.5388483 C55.7887868,46.3058424 56.2360188,46.0352524 56.4811992,45.8717988 C56.7053099,45.7223917 57.5562627,45.1275352 57.4741759,45.1842141 C58.1564212,44.71314 58.7167592,44.3694844 59.4111456,44.0222912 C59.8450143,43.8053569 60.2913814,43.6752794 60.7346228,43.6224026 C59.7205135,41.9167128 58.8394207,40.4267803 57.8960472,38.8238337 C57.4025213,37.9851391 56.9485342,37.2121823 56.3116686,36.1267701 C56.3811867,36.2452501 55.8961617,35.4184803 55.4,34.5728149 Z" id="Combined-Shape" fill="#FFFFFF" fill-rule="nonzero"></path>
                <path d="M51.4,10.4 C48.4,10.8 47.4,11.1 45.4,11.3 L45.4,60.2 C45.4,61.1 45.1,61.9 44.5,62.6 C43.9,63.3 43.2,63.7 42.3,63.9 C41.9,64 41.8,64 41.4,64.1 C40.6,64.3 39.9,64.1 39.3,63.6 C38.8,63.1 38.5,62.4 38.5,61.6 L38.5,12.7 C36.5,13 36,13.1 34.4,13.4 C33.9,13.4 33.5,13.6 33.1,14 C32.7,14.4 32.5,14.8 32.5,15.2 L32.5,63.5 C32.5,64.5 32.7,65.4 33.1,66.2 C33.5,67 34.1,67.7 34.7,68.2 C35.3,68.8 36.1,69.2 37,69.4 C37.9,69.6 38.8,69.7 39.8,69.5 C41.6,69.2 42.5,69 44.3,68.7 C46.2,68.2 47.9,67.2 49.2,65.6 C50.5,64 51.4,62.2 51.4,60.3 L51.4,10.4 Z" id="Path" fill="#222222"></path>
                <path d="M71.7,19.1 C72.1,18.8 72.5,18.4 72.8,18.1 C73.1,17.6 73.3,16.8 73.3,15.9 L73.3,13.7 C73.3,12.7 73.1,11.9 72.7,11 C72.3,10.1 71.8,9.4 71.2,8.8 C70.6,8.2 69.9,7.8 69,7.5 C68.1,7.2 67.2,7.1 66.3,7.3 C64.9,7.5 64.2,7.6 62.7,7.9 C61.7,8 60.8,8.4 59.9,9 C59,9.6 58.3,10.3 57.6,11.3 C56.9,12.2 56.4,13 56,14 C55.6,14.9 55.3,15.9 55.3,16.9 L55.3,22.7 C55.3,23.6 55.6,24.6 55.8,25.6 C56.1,26.6 56.5,27.5 56.8,28.3 C57.1,29.2 57.5,30.1 58,31.1 C60.7,35.7 62.1,38.1 64.9,42.8 C65.5,43.8 65.9,44.7 66.2,45.6 C66.5,46.5 66.7,47.3 66.9,47.9 C67.1,48.7 67.2,49.3 67.2,50 L67.2,56.4 C67.2,57.2 67,58 66.4,58.7 C65.8,59.4 65.2,59.8 64.3,60 C63.4,60.1 62.7,60 62.1,59.5 C61.5,59 61.2,58.3 61.2,57.5 L61.2,47.6 C60.2,48.1 59.6,48.6 58.7,49.2 C57.8,49.8 57.2,50.1 56.9,50.3 C56.5,50.6 56.1,51 55.8,51.5 C55.5,52 55.2,52.8 55.2,53.7 L55.2,59.5 C55.2,61.4 56,62.9 57.3,64 C58.6,65.1 60.4,65.5 62.3,65.3 C63.7,65.1 64.4,65 65.9,64.7 C67.9,64.3 69.6,63.3 71,61.7 C72.4,60.1 73.1,58.3 73.1,56.3 L73.1,49.2 C73.1,48.3 73,47.3 72.7,46.3 C72.5,45.3 72.1,44.3 71.8,43.5 C71.5,42.5 71,41.6 70.6,40.6 C67.9,35.9 66.5,33.6 63.8,28.9 C63.2,27.9 62.7,27 62.4,26.1 C62.1,25.2 61.9,24.4 61.7,23.8 C61.5,23 61.3,22.4 61.3,21.7 L61.3,16.3 C61.3,15.4 61.6,14.6 62.2,13.9 C62.8,13.2 63.5,12.7 64.3,12.6 C65.2,12.4 65.9,12.6 66.5,13.1 C67.1,13.6 67.3,14.3 67.3,15.2 L67.3,21.7 C68.3,21.3 68.9,20.8 69.8,20.2 C70.7,19.6 71.4,19.3 71.7,19.1 Z" id="Path" fill="#222222"></path>
                <path d="M97.3,61 C94.1,50.8 90.8,40.5 87.6,30.3 C91.2,19.8 93,14.6 96.6,4.3 C94.2,4.3 93,4.4 90.6,4.5 C87.7,12.9 86.4,17.1 83.4,25.6 L83.4,4.9 C81.4,5 81,5.1 79.5,5.4 C79.1,5.5 78.7,5.7 78.2,6 C77.8,6.3 77.4,7 77.4,7.9 L77.4,62.5 C80.4,62.2 81.4,62 83.4,61.8 L83.4,36.4 C86.4,46.2 88.1,51.2 91.2,61.2 C93.6,61 94.8,61 97.3,61 Z" id="Path" fill="#222222"></path>
                <path d="M26.4,22.7 L26.4,63 C26.4,68.5 23.5,71.6 18.1,72 C13.9,72.3 12.4,72.4 7.4,72.4 L7.4,15.8 C12.4,15.8 13.9,15.7 18.1,15.4 C23.4,15 26.4,17.3 26.4,22.7 Z M20.4,24.3 C20.4,23 20.2,22 19.6,21.5 C19.1,21 18.2,20.7 17.3,20.8 C15.8,20.9 15.4,21 13.4,21 L13.4,66.9 C15.4,66.8 15.8,66.8 17.4,66.7 C18.3,66.6 19.1,66.3 19.6,65.7 C20.1,65.1 20.4,64.1 20.4,62.8 L20.4,24.3 Z" id="Combined-Shape" fill="#222222"></path>
            </g>
        </g>
    </g>
</svg>